<mxfile host="app.diagrams.net" modified="2022-09-28T13:59:14.457Z" agent="5.0 (Windows NT 10.0; Win64; x64) AppleWebKit/537.36 (KHTML, like Gecko) Chrome/105.0.0.0 Safari/537.36" etag="T9PpXyYMwkDSiaIxZJdx" version="20.3.7" type="github" pages="3">
  <diagram id="s-m2lbIZee-Xv5_GphpK" name="Objetos_De_Caso_De_Uso">
    <mxGraphModel dx="862" dy="484" grid="1" gridSize="10" guides="1" tooltips="1" connect="1" arrows="1" fold="1" page="1" pageScale="1" pageWidth="827" pageHeight="1169" math="0" shadow="0">
      <root>
        <mxCell id="0" />
        <mxCell id="1" parent="0" />
        <mxCell id="bQB1MiLATpB_2jO6ts6u-1" value="[Nome]" style="ellipse;whiteSpace=wrap;html=1;" vertex="1" parent="1">
          <mxGeometry x="140" y="80" width="120" height="80" as="geometry" />
        </mxCell>
        <mxCell id="bQB1MiLATpB_2jO6ts6u-2" value="[Nome]" style="rounded=0;whiteSpace=wrap;html=1;" vertex="1" parent="1">
          <mxGeometry x="140" y="655" width="120" height="60" as="geometry" />
        </mxCell>
        <mxCell id="bQB1MiLATpB_2jO6ts6u-3" value="Actor" style="shape=umlActor;verticalLabelPosition=bottom;verticalAlign=top;html=1;outlineConnect=0;" vertex="1" parent="1">
          <mxGeometry x="190" y="335" width="40" height="80" as="geometry" />
        </mxCell>
        <mxCell id="bQB1MiLATpB_2jO6ts6u-5" value="Caso de uso" style="text;html=1;strokeColor=none;fillColor=none;align=center;verticalAlign=middle;whiteSpace=wrap;rounded=0;" vertex="1" parent="1">
          <mxGeometry x="360" y="105" width="90" height="30" as="geometry" />
        </mxCell>
        <mxCell id="bQB1MiLATpB_2jO6ts6u-6" value="Ator" style="text;html=1;strokeColor=none;fillColor=none;align=center;verticalAlign=middle;whiteSpace=wrap;rounded=0;" vertex="1" parent="1">
          <mxGeometry x="374" y="380" width="76" height="35" as="geometry" />
        </mxCell>
        <mxCell id="bQB1MiLATpB_2jO6ts6u-7" value="Limite do sistema&lt;br&gt;" style="text;html=1;strokeColor=none;fillColor=none;align=center;verticalAlign=middle;whiteSpace=wrap;rounded=0;" vertex="1" parent="1">
          <mxGeometry x="350" y="665" width="110" height="40" as="geometry" />
        </mxCell>
        <mxCell id="bQB1MiLATpB_2jO6ts6u-10" value="&lt;h1&gt;Limite do sistema&lt;/h1&gt;&lt;div&gt;&lt;span style=&quot;color: rgb(32, 33, 36); font-family: arial, sans-serif; font-size: 16px; background-color: rgb(255, 255, 255);&quot;&gt;Um limite do sistema&amp;nbsp;&lt;/span&gt;&lt;b style=&quot;color: rgb(32, 33, 36); font-family: arial, sans-serif; font-size: 16px; background-color: rgb(255, 255, 255);&quot;&gt;é um retângulo que você pode desenhar em um diagrama de casos de uso para separar os casos de uso que são internos dos agentes que são externos ao sistema&lt;/b&gt;&lt;span style=&quot;color: rgb(32, 33, 36); font-family: arial, sans-serif; font-size: 16px; background-color: rgb(255, 255, 255);&quot;&gt;. Um limite do sistema é um auxílio visual opcional no diagrama; ele não inclui valor de semântica no modelo.&lt;/span&gt;&lt;br&gt;&lt;/div&gt;" style="text;html=1;strokeColor=none;fillColor=none;spacing=5;spacingTop=-20;whiteSpace=wrap;overflow=hidden;rounded=0;" vertex="1" parent="1">
          <mxGeometry x="130" y="735" width="470" height="190" as="geometry" />
        </mxCell>
        <mxCell id="bQB1MiLATpB_2jO6ts6u-12" value="&lt;h1&gt;Ator&lt;/h1&gt;&lt;div&gt;&lt;span style=&quot;color: rgb(32, 33, 36); font-family: arial, sans-serif; font-size: 16px; background-color: rgb(255, 255, 255);&quot;&gt;Um ator&amp;nbsp;&lt;/span&gt;&lt;b style=&quot;color: rgb(32, 33, 36); font-family: arial, sans-serif; font-size: 16px; background-color: rgb(255, 255, 255);&quot;&gt;é um humano ou entidade máquina que interage com o sistema para executar um significante trabalho&lt;/b&gt;&lt;span style=&quot;color: rgb(32, 33, 36); font-family: arial, sans-serif; font-size: 16px; background-color: rgb(255, 255, 255);&quot;&gt;. É importante notar que não descreve como o software deverá ser construído, mas sim como ele deverá se comportar quando estiver pronto.&lt;/span&gt;&lt;br&gt;&lt;/div&gt;" style="text;html=1;strokeColor=none;fillColor=none;spacing=5;spacingTop=-20;whiteSpace=wrap;overflow=hidden;rounded=0;" vertex="1" parent="1">
          <mxGeometry x="140" y="465" width="500" height="150" as="geometry" />
        </mxCell>
        <mxCell id="bQB1MiLATpB_2jO6ts6u-14" value="&lt;h1&gt;Caso de uso&lt;/h1&gt;&lt;div&gt;&lt;div style=&quot;color: rgb(32, 33, 36); font-family: arial, sans-serif; font-size: medium; background-color: rgb(255, 255, 255);&quot; id=&quot;KzI0Y7f4CbSe0Aakk7_gCQ__7&quot;&gt;&lt;div style=&quot;clear: none;&quot; data-md=&quot;61&quot; class=&quot;wDYxhc&quot;&gt;&lt;div style=&quot;overflow: hidden; padding-bottom: 20px;&quot; data-hveid=&quot;CBQQAA&quot; role=&quot;heading&quot; aria-level=&quot;3&quot; data-attrid=&quot;wa:/description&quot; class=&quot;LGOjhe&quot;&gt;&lt;span style=&quot;font-size: 16px; line-height: 24px;&quot; lang=&quot;pt&quot; class=&quot;ILfuVd&quot;&gt;&lt;span style=&quot;padding: 0px 8px 0px 0px;&quot; class=&quot;hgKElc&quot;&gt;Um&amp;nbsp;&lt;b&gt;caso de uso define&lt;/b&gt;&amp;nbsp;uma seqüência de ações executadas pelo sistema que geram um resultado de valor observável para um ator em particular. Existem diversas palavras chave nesta definição: &quot;&lt;b&gt;caso de uso&lt;/b&gt;&quot; A seqüência de ações referenciada na definição é na realidade um fluxo específico de eventos no sistema.&lt;/span&gt;&lt;/span&gt;&lt;/div&gt;&lt;div&gt;&lt;span style=&quot;font-size: 16px; line-height: 24px;&quot; lang=&quot;pt&quot; class=&quot;ILfuVd&quot;&gt;&lt;span style=&quot;padding: 0px 8px 0px 0px;&quot; class=&quot;hgKElc&quot;&gt;&lt;br&gt;&lt;/span&gt;&lt;/span&gt;&lt;/div&gt;&lt;/div&gt;&lt;/div&gt;&lt;div style=&quot;color: rgb(32, 33, 36); font-family: arial, sans-serif; font-size: medium; background-color: rgb(255, 255, 255);&quot; id=&quot;KzI0Y7f4CbSe0Aakk7_gCQ__8&quot;&gt;&lt;div style=&quot;font-size: 14px; line-height: 1.58; width: 600px; margin-top: 0px; margin-bottom: 4px; clear: both; padding-left: 0px; padding-right: 0px;&quot; class=&quot;g&quot;&gt;&lt;div data-ved=&quot;2ahUKEwj3uYyUs7f6AhU0D9QKHaTJD5wQFSgAegQICBAA&quot; data-hveid=&quot;CAgQAA&quot; lang=&quot;pt&quot;&gt;&lt;div style=&quot;position: relative;&quot; class=&quot;tF2Cxc&quot;&gt;&lt;/div&gt;&lt;/div&gt;&lt;/div&gt;&lt;/div&gt;&lt;/div&gt;" style="text;html=1;strokeColor=none;fillColor=none;spacing=5;spacingTop=-20;whiteSpace=wrap;overflow=hidden;rounded=0;" vertex="1" parent="1">
          <mxGeometry x="130" y="170" width="640" height="150" as="geometry" />
        </mxCell>
      </root>
    </mxGraphModel>
  </diagram>
  <diagram id="xdOm3s-Yk0o98L7K5LYH" name="Cadastro">
    <mxGraphModel dx="862" dy="484" grid="1" gridSize="10" guides="1" tooltips="1" connect="1" arrows="1" fold="1" page="1" pageScale="1" pageWidth="827" pageHeight="1169" math="0" shadow="0">
      <root>
        <mxCell id="0" />
        <mxCell id="1" parent="0" />
        <mxCell id="X_mdNcFHVjT-omKekM84-3" value="Usuario" style="shape=umlActor;verticalLabelPosition=bottom;verticalAlign=top;html=1;outlineConnect=0;" vertex="1" parent="1">
          <mxGeometry x="150" y="90" width="30" height="60" as="geometry" />
        </mxCell>
        <mxCell id="X_mdNcFHVjT-omKekM84-8" value="Cadastrar skill&lt;br&gt;" style="ellipse;whiteSpace=wrap;html=1;" vertex="1" parent="1">
          <mxGeometry x="310" y="160" width="120" height="80" as="geometry" />
        </mxCell>
        <mxCell id="X_mdNcFHVjT-omKekM84-10" value="" style="endArrow=none;html=1;rounded=0;entryX=0;entryY=0.5;entryDx=0;entryDy=0;" edge="1" parent="1" source="X_mdNcFHVjT-omKekM84-3" target="X_mdNcFHVjT-omKekM84-8">
          <mxGeometry width="50" height="50" relative="1" as="geometry">
            <mxPoint x="170" y="240" as="sourcePoint" />
            <mxPoint x="350" y="170" as="targetPoint" />
          </mxGeometry>
        </mxCell>
        <mxCell id="X_mdNcFHVjT-omKekM84-11" value="&#xa;&lt;span style=&quot;color: rgb(36, 36, 36); font-family: -apple-system, BlinkMacSystemFont, &amp;quot;Segoe UI&amp;quot;, system-ui, &amp;quot;Apple Color Emoji&amp;quot;, &amp;quot;Segoe UI Emoji&amp;quot;, &amp;quot;Segoe UI Web&amp;quot;, sans-serif; font-size: 14px; font-style: normal; font-variant-ligatures: normal; font-variant-caps: normal; font-weight: 400; letter-spacing: normal; orphans: 2; text-align: start; text-indent: 0px; text-transform: none; widows: 2; word-spacing: 0px; -webkit-text-stroke-width: 0px; background-color: rgb(255, 255, 255); text-decoration-style: initial; text-decoration-color: initial; float: none; display: inline !important;&quot;&gt;mentoring&lt;/span&gt;&#xa;&#xa;" style="ellipse;whiteSpace=wrap;html=1;" vertex="1" parent="1">
          <mxGeometry x="310" y="50" width="120" height="80" as="geometry" />
        </mxCell>
        <mxCell id="X_mdNcFHVjT-omKekM84-13" value="" style="endArrow=none;html=1;rounded=0;entryX=0;entryY=0.5;entryDx=0;entryDy=0;exitX=1;exitY=0.3333333333333333;exitDx=0;exitDy=0;exitPerimeter=0;" edge="1" parent="1" source="X_mdNcFHVjT-omKekM84-3" target="X_mdNcFHVjT-omKekM84-11">
          <mxGeometry width="50" height="50" relative="1" as="geometry">
            <mxPoint x="390" y="270" as="sourcePoint" />
            <mxPoint x="440" y="220" as="targetPoint" />
          </mxGeometry>
        </mxCell>
        <mxCell id="X_mdNcFHVjT-omKekM84-25" value="&lt;table style=&quot;border-collapse:collapse;border:none;mso-border-alt:solid windowtext .5pt;&#xa; mso-yfti-tbllook:1184;mso-padding-alt:0cm 5.4pt 0cm 5.4pt&quot; cellpadding=&quot;0&quot; cellspacing=&quot;0&quot; border=&quot;1&quot; class=&quot;MsoTableGrid&quot;&gt;&#xa; &lt;tbody&gt;&lt;tr style=&quot;mso-yfti-irow:0;mso-yfti-firstrow:yes&quot;&gt;&#xa;  &lt;td style=&quot;width:230.3pt;border:solid windowtext 1.0pt;&#xa;  mso-border-alt:solid windowtext .5pt;padding:0cm 5.4pt 0cm 5.4pt&quot; valign=&quot;top&quot; width=&quot;307&quot;&gt;&#xa;  &lt;p style=&quot;margin-bottom:0cm;text-align:center;&#xa;  line-height:normal&quot; align=&quot;center&quot; class=&quot;MsoNormal&quot;&gt;&lt;b&gt;&lt;span style=&quot;mso-ansi-language:PT-BR&quot;&gt;Nome&lt;/span&gt;&lt;/b&gt;&lt;/p&gt;&#xa;  &lt;/td&gt;&#xa;  &lt;td style=&quot;width:230.3pt;border:solid windowtext 1.0pt;&#xa;  border-left:none;mso-border-left-alt:solid windowtext .5pt;mso-border-alt:&#xa;  solid windowtext .5pt;padding:0cm 5.4pt 0cm 5.4pt&quot; valign=&quot;top&quot; width=&quot;307&quot;&gt;&#xa;  &lt;p style=&quot;margin-bottom:0cm;line-height:normal&quot; class=&quot;MsoNormal&quot;&gt;&lt;b&gt;&lt;span style=&quot;mso-ansi-language:PT-BR&quot;&gt;&lt;span style=&quot;mso-tab-count:1&quot;&gt;&amp;nbsp;&amp;nbsp;&amp;nbsp;&amp;nbsp;&amp;nbsp;&amp;nbsp;&amp;nbsp;&amp;nbsp;&amp;nbsp;&amp;nbsp;&amp;nbsp;&amp;nbsp;&amp;nbsp;&amp;nbsp;&amp;nbsp; &lt;/span&gt;Realizar&#xa;  Cadastro&lt;/span&gt;&lt;/b&gt;&lt;span style=&quot;mso-ansi-language:PT-BR&quot;&gt;&lt;/span&gt;&lt;/p&gt;&#xa;  &lt;/td&gt;&#xa; &lt;/tr&gt;&#xa; &lt;tr style=&quot;mso-yfti-irow:1&quot;&gt;&#xa;  &lt;td style=&quot;width:230.3pt;border:solid windowtext 1.0pt;&#xa;  border-top:none;mso-border-top-alt:solid windowtext .5pt;mso-border-alt:solid windowtext .5pt;&#xa;  padding:0cm 5.4pt 0cm 5.4pt&quot; valign=&quot;top&quot; width=&quot;307&quot;&gt;&#xa;  &lt;p style=&quot;margin-bottom:0cm;text-align:center;&#xa;  line-height:normal&quot; align=&quot;center&quot; class=&quot;MsoNormal&quot;&gt;&lt;b&gt;&lt;span style=&quot;mso-ansi-language:PT-BR&quot;&gt;Atores&lt;/span&gt;&lt;/b&gt;&lt;/p&gt;&#xa;  &lt;/td&gt;&#xa;  &lt;td style=&quot;width:230.3pt;border-top:none;border-left:&#xa;  none;border-bottom:solid windowtext 1.0pt;border-right:solid windowtext 1.0pt;&#xa;  mso-border-top-alt:solid windowtext .5pt;mso-border-left-alt:solid windowtext .5pt;&#xa;  mso-border-alt:solid windowtext .5pt;padding:0cm 5.4pt 0cm 5.4pt&quot; valign=&quot;top&quot; width=&quot;307&quot;&gt;&#xa;  &lt;p style=&quot;margin-bottom:0cm;line-height:normal&quot; class=&quot;MsoNormal&quot;&gt;&lt;span style=&quot;mso-ansi-language:PT-BR&quot;&gt;Mentor, Mentorado&lt;/span&gt;&lt;/p&gt;&#xa;  &lt;/td&gt;&#xa; &lt;/tr&gt;&#xa; &lt;tr style=&quot;mso-yfti-irow:2;height:42.05pt&quot;&gt;&#xa;  &lt;td style=&quot;width:230.3pt;border:solid windowtext 1.0pt;&#xa;  border-top:none;mso-border-top-alt:solid windowtext .5pt;mso-border-alt:solid windowtext .5pt;&#xa;  padding:0cm 5.4pt 0cm 5.4pt;height:42.05pt&quot; valign=&quot;top&quot; width=&quot;307&quot;&gt;&#xa;  &lt;p style=&quot;margin-bottom:0cm;text-align:center;&#xa;  line-height:normal&quot; align=&quot;center&quot; class=&quot;MsoNormal&quot;&gt;&lt;b&gt;&lt;span style=&quot;mso-ansi-language:PT-BR&quot;&gt;Resumo&lt;/span&gt;&lt;/b&gt;&lt;/p&gt;&#xa;  &lt;/td&gt;&#xa;  &lt;td style=&quot;width:230.3pt;border-top:none;border-left:&#xa;  none;border-bottom:solid windowtext 1.0pt;border-right:solid windowtext 1.0pt;&#xa;  mso-border-top-alt:solid windowtext .5pt;mso-border-left-alt:solid windowtext .5pt;&#xa;  mso-border-alt:solid windowtext .5pt;padding:0cm 5.4pt 0cm 5.4pt;height:42.05pt&quot; valign=&quot;top&quot; width=&quot;307&quot;&gt;&#xa;  &lt;p style=&quot;margin-bottom:0cm;line-height:normal&quot; class=&quot;MsoNormal&quot;&gt;&lt;span style=&quot;mso-ansi-language:PT-BR&quot;&gt;Deve ser possibilitado o cadastro do usuário com&#xa;  os dados principais de usuário&lt;/span&gt;&lt;/p&gt;&#xa;  &lt;/td&gt;&#xa; &lt;/tr&gt;&#xa; &lt;tr style=&quot;mso-yfti-irow:3;height:21.4pt&quot;&gt;&#xa;  &lt;td style=&quot;width:230.3pt;border:solid windowtext 1.0pt;&#xa;  border-top:none;mso-border-top-alt:solid windowtext .5pt;mso-border-alt:solid windowtext .5pt;&#xa;  padding:0cm 5.4pt 0cm 5.4pt;height:21.4pt&quot; valign=&quot;top&quot; width=&quot;307&quot;&gt;&#xa;  &lt;p style=&quot;margin-bottom:0cm;text-align:center;&#xa;  line-height:normal&quot; align=&quot;center&quot; class=&quot;MsoNormal&quot;&gt;&lt;b&gt;&lt;span style=&quot;mso-ansi-language:PT-BR&quot;&gt;Pré-Condições&lt;/span&gt;&lt;/b&gt;&lt;/p&gt;&#xa;  &lt;/td&gt;&#xa;  &lt;td style=&quot;width:230.3pt;border-top:none;border-left:&#xa;  none;border-bottom:solid windowtext 1.0pt;border-right:solid windowtext 1.0pt;&#xa;  mso-border-top-alt:solid windowtext .5pt;mso-border-left-alt:solid windowtext .5pt;&#xa;  mso-border-alt:solid windowtext .5pt;padding:0cm 5.4pt 0cm 5.4pt;height:21.4pt&quot; valign=&quot;top&quot; width=&quot;307&quot;&gt;&#xa;  &lt;p style=&quot;margin-bottom:0cm;line-height:normal&quot; class=&quot;MsoNormal&quot;&gt;&lt;span style=&quot;mso-ansi-language:PT-BR&quot;&gt;&amp;nbsp;&lt;/span&gt;&lt;/p&gt;&#xa;  &lt;/td&gt;&#xa; &lt;/tr&gt;&#xa; &lt;tr style=&quot;mso-yfti-irow:4;height:19.6pt&quot;&gt;&#xa;  &lt;td style=&quot;width:230.3pt;border:solid windowtext 1.0pt;&#xa;  border-top:none;mso-border-top-alt:solid windowtext .5pt;mso-border-alt:solid windowtext .5pt;&#xa;  padding:0cm 5.4pt 0cm 5.4pt;height:19.6pt&quot; valign=&quot;top&quot; width=&quot;307&quot;&gt;&#xa;  &lt;p style=&quot;margin-bottom:0cm;text-align:center;&#xa;  line-height:normal&quot; align=&quot;center&quot; class=&quot;MsoNormal&quot;&gt;&lt;b&gt;&lt;span style=&quot;mso-ansi-language:PT-BR&quot;&gt;Pós-Condições&lt;/span&gt;&lt;/b&gt;&lt;/p&gt;&#xa;  &lt;/td&gt;&#xa;  &lt;td style=&quot;width:230.3pt;border-top:none;border-left:&#xa;  none;border-bottom:solid windowtext 1.0pt;border-right:solid windowtext 1.0pt;&#xa;  mso-border-top-alt:solid windowtext .5pt;mso-border-left-alt:solid windowtext .5pt;&#xa;  mso-border-alt:solid windowtext .5pt;padding:0cm 5.4pt 0cm 5.4pt;height:19.6pt&quot; valign=&quot;top&quot; width=&quot;307&quot;&gt;&#xa;  &lt;p style=&quot;margin-bottom:0cm;line-height:normal&quot; class=&quot;MsoNormal&quot;&gt;&lt;span style=&quot;mso-ansi-language:PT-BR&quot;&gt;&amp;nbsp;&lt;/span&gt;&lt;/p&gt;&#xa;  &lt;/td&gt;&#xa; &lt;/tr&gt;&#xa; &lt;tr style=&quot;mso-yfti-irow:5;mso-yfti-lastrow:yes;height:14.2pt&quot;&gt;&#xa;  &lt;td style=&quot;width:230.3pt;border:solid windowtext 1.0pt;&#xa;  border-top:none;mso-border-top-alt:solid windowtext .5pt;mso-border-alt:solid windowtext .5pt;&#xa;  padding:0cm 5.4pt 0cm 5.4pt;height:14.2pt&quot; valign=&quot;top&quot; width=&quot;307&quot;&gt;&#xa;  &lt;p style=&quot;margin-bottom:0cm;text-align:center;&#xa;  line-height:normal&quot; align=&quot;center&quot; class=&quot;MsoNormal&quot;&gt;&lt;b&gt;&lt;span style=&quot;mso-ansi-language:PT-BR&quot;&gt;Fluxo principal&lt;/span&gt;&lt;/b&gt;&lt;/p&gt;&#xa;  &lt;/td&gt;&#xa;  &lt;td style=&quot;width:230.3pt;border-top:none;border-left:&#xa;  none;border-bottom:solid windowtext 1.0pt;border-right:solid windowtext 1.0pt;&#xa;  mso-border-top-alt:solid windowtext .5pt;mso-border-left-alt:solid windowtext .5pt;&#xa;  mso-border-alt:solid windowtext .5pt;padding:0cm 5.4pt 0cm 5.4pt;height:14.2pt&quot; valign=&quot;top&quot; width=&quot;307&quot;&gt;&#xa;  &lt;p style=&quot;margin-bottom:0cm;line-height:normal&quot; class=&quot;MsoNormal&quot;&gt;&lt;span style=&quot;mso-ansi-language:PT-BR&quot;&gt;&amp;nbsp;&lt;/span&gt;&lt;/p&gt;&#xa;  &lt;/td&gt;&#xa; &lt;/tr&gt;&#xa;&lt;/tbody&gt;&lt;/table&gt;" style="text;whiteSpace=wrap;html=1;" vertex="1" parent="1">
          <mxGeometry x="100" y="300" width="560" height="490" as="geometry" />
        </mxCell>
      </root>
    </mxGraphModel>
  </diagram>
  <diagram id="XIxy7PARVu1SM5j16MhH" name="MVP">
    <mxGraphModel dx="1202" dy="640" grid="1" gridSize="10" guides="1" tooltips="1" connect="1" arrows="1" fold="1" page="1" pageScale="1" pageWidth="827" pageHeight="1169" math="0" shadow="0">
      <root>
        <mxCell id="0" />
        <mxCell id="1" parent="0" />
        <mxCell id="vmAWn5iPiY9hAJlBLCwx-1" value="Usuário" style="shape=umlActor;verticalLabelPosition=bottom;verticalAlign=top;html=1;outlineConnect=0;" vertex="1" parent="1">
          <mxGeometry x="240" y="150" width="30" height="60" as="geometry" />
        </mxCell>
        <mxCell id="8TleRB0PFEIPCDLv6FdY-1" value="Cadastrar usuário" style="ellipse;whiteSpace=wrap;html=1;" vertex="1" parent="1">
          <mxGeometry x="440" y="30" width="120" height="80" as="geometry" />
        </mxCell>
        <mxCell id="8TleRB0PFEIPCDLv6FdY-2" value="" style="endArrow=none;html=1;rounded=0;entryX=0;entryY=0.5;entryDx=0;entryDy=0;" edge="1" parent="1" source="vmAWn5iPiY9hAJlBLCwx-1" target="8TleRB0PFEIPCDLv6FdY-1">
          <mxGeometry width="50" height="50" relative="1" as="geometry">
            <mxPoint x="390" y="210" as="sourcePoint" />
            <mxPoint x="440" y="160" as="targetPoint" />
          </mxGeometry>
        </mxCell>
        <mxCell id="8TleRB0PFEIPCDLv6FdY-4" value="Administrador" style="shape=umlActor;verticalLabelPosition=bottom;verticalAlign=top;html=1;outlineConnect=0;" vertex="1" parent="1">
          <mxGeometry x="1020" y="400" width="30" height="60" as="geometry" />
        </mxCell>
        <mxCell id="8TleRB0PFEIPCDLv6FdY-5" value="Cadastrar Skill" style="ellipse;whiteSpace=wrap;html=1;" vertex="1" parent="1">
          <mxGeometry x="980" y="240" width="120" height="80" as="geometry" />
        </mxCell>
        <mxCell id="8TleRB0PFEIPCDLv6FdY-6" value="" style="endArrow=none;html=1;rounded=0;" edge="1" parent="1" source="8TleRB0PFEIPCDLv6FdY-4" target="8TleRB0PFEIPCDLv6FdY-5">
          <mxGeometry width="50" height="50" relative="1" as="geometry">
            <mxPoint x="210" y="243.44827586206895" as="sourcePoint" />
            <mxPoint x="340" y="100" as="targetPoint" />
          </mxGeometry>
        </mxCell>
        <mxCell id="8TleRB0PFEIPCDLv6FdY-8" value="Logar" style="ellipse;whiteSpace=wrap;html=1;" vertex="1" parent="1">
          <mxGeometry x="810" y="200" width="110" height="80" as="geometry" />
        </mxCell>
        <mxCell id="8TleRB0PFEIPCDLv6FdY-9" value="Selecionar Skill" style="ellipse;whiteSpace=wrap;html=1;" vertex="1" parent="1">
          <mxGeometry x="430" y="140" width="120" height="80" as="geometry" />
        </mxCell>
        <mxCell id="VCTZq7_3WHuEJE_S4KYv-3" value="&amp;lt;&amp;lt;Include&amp;gt;&amp;gt;&lt;br&gt;" style="endArrow=open;endSize=12;dashed=1;html=1;rounded=0;exitX=1;exitY=0.5;exitDx=0;exitDy=0;" edge="1" parent="1" source="8TleRB0PFEIPCDLv6FdY-9" target="8TleRB0PFEIPCDLv6FdY-8">
          <mxGeometry width="160" relative="1" as="geometry">
            <mxPoint x="260" y="229.5" as="sourcePoint" />
            <mxPoint x="420" y="229.5" as="targetPoint" />
          </mxGeometry>
        </mxCell>
        <mxCell id="VCTZq7_3WHuEJE_S4KYv-4" value="" style="endArrow=none;html=1;rounded=0;entryX=0.5;entryY=0.5;entryDx=0;entryDy=0;entryPerimeter=0;" edge="1" parent="1" source="8TleRB0PFEIPCDLv6FdY-9" target="vmAWn5iPiY9hAJlBLCwx-1">
          <mxGeometry width="50" height="50" relative="1" as="geometry">
            <mxPoint x="260" y="89.5" as="sourcePoint" />
            <mxPoint x="320" y="89.5" as="targetPoint" />
          </mxGeometry>
        </mxCell>
        <mxCell id="VCTZq7_3WHuEJE_S4KYv-6" value="Cria agenda de mentoria" style="ellipse;whiteSpace=wrap;html=1;" vertex="1" parent="1">
          <mxGeometry x="580" y="250" width="120" height="80" as="geometry" />
        </mxCell>
        <mxCell id="VCTZq7_3WHuEJE_S4KYv-9" value="&amp;lt;&amp;lt;Include&amp;gt;&amp;gt;&lt;br&gt;" style="endArrow=open;endSize=12;dashed=1;html=1;rounded=0;exitX=1;exitY=0.5;exitDx=0;exitDy=0;entryX=0;entryY=1;entryDx=0;entryDy=0;" edge="1" parent="1" source="VCTZq7_3WHuEJE_S4KYv-6" target="8TleRB0PFEIPCDLv6FdY-8">
          <mxGeometry width="160" relative="1" as="geometry">
            <mxPoint x="570" y="190" as="sourcePoint" />
            <mxPoint x="760.4273896907846" y="174.76580882473718" as="targetPoint" />
            <Array as="points" />
          </mxGeometry>
        </mxCell>
        <mxCell id="VCTZq7_3WHuEJE_S4KYv-10" value="Buscar Mentoria/Match&lt;br&gt;" style="ellipse;whiteSpace=wrap;html=1;" vertex="1" parent="1">
          <mxGeometry x="390" y="440" width="120" height="80" as="geometry" />
        </mxCell>
        <mxCell id="VCTZq7_3WHuEJE_S4KYv-13" value="" style="endArrow=none;html=1;rounded=0;exitX=0.013;exitY=0.403;exitDx=0;exitDy=0;exitPerimeter=0;" edge="1" parent="1" source="VCTZq7_3WHuEJE_S4KYv-10" target="vmAWn5iPiY9hAJlBLCwx-1">
          <mxGeometry width="50" height="50" relative="1" as="geometry">
            <mxPoint x="530" y="340" as="sourcePoint" />
            <mxPoint x="580" y="290" as="targetPoint" />
          </mxGeometry>
        </mxCell>
        <mxCell id="VCTZq7_3WHuEJE_S4KYv-17" value="Gerenciar Agenda" style="ellipse;whiteSpace=wrap;html=1;" vertex="1" parent="1">
          <mxGeometry x="354" y="250" width="120" height="80" as="geometry" />
        </mxCell>
        <mxCell id="VCTZq7_3WHuEJE_S4KYv-20" value="" style="endArrow=none;html=1;rounded=0;entryX=0.5;entryY=0.5;entryDx=0;entryDy=0;entryPerimeter=0;" edge="1" parent="1" source="VCTZq7_3WHuEJE_S4KYv-17" target="vmAWn5iPiY9hAJlBLCwx-1">
          <mxGeometry width="50" height="50" relative="1" as="geometry">
            <mxPoint x="440" y="430" as="sourcePoint" />
            <mxPoint x="280" y="210.57142857142856" as="targetPoint" />
          </mxGeometry>
        </mxCell>
        <mxCell id="VCTZq7_3WHuEJE_S4KYv-21" value="&amp;lt;&amp;lt;Extends&amp;gt;&amp;gt;" style="endArrow=open;endSize=12;dashed=1;html=1;rounded=0;exitX=0;exitY=0.5;exitDx=0;exitDy=0;" edge="1" parent="1" source="VCTZq7_3WHuEJE_S4KYv-6" target="VCTZq7_3WHuEJE_S4KYv-17">
          <mxGeometry width="160" relative="1" as="geometry">
            <mxPoint x="530" y="376.27" as="sourcePoint" />
            <mxPoint x="587.6673896907846" y="279.9958088247372" as="targetPoint" />
            <Array as="points" />
          </mxGeometry>
        </mxCell>
        <mxCell id="VCTZq7_3WHuEJE_S4KYv-22" value="&amp;lt;&amp;lt;Include&amp;gt;&amp;gt;&lt;br&gt;" style="endArrow=open;endSize=12;dashed=1;html=1;rounded=0;exitX=1.013;exitY=0.31;exitDx=0;exitDy=0;exitPerimeter=0;entryX=0.264;entryY=1.013;entryDx=0;entryDy=0;entryPerimeter=0;" edge="1" parent="1" source="VCTZq7_3WHuEJE_S4KYv-10" target="8TleRB0PFEIPCDLv6FdY-8">
          <mxGeometry width="160" relative="1" as="geometry">
            <mxPoint x="712.76" y="281.03999999999996" as="sourcePoint" />
            <mxPoint x="770" y="510" as="targetPoint" />
            <Array as="points" />
          </mxGeometry>
        </mxCell>
      </root>
    </mxGraphModel>
  </diagram>
</mxfile>
